<svg width="194" height="27" viewBox="0 0 194 27" fill="none" xmlns="http://www.w3.org/2000/svg">
<path fill-rule="evenodd" clip-rule="evenodd" d="M117.978 0C117.892 0.846797 117.131 1.27555 116.092 1.27555C115.106 1.27555 114.291 0.846797 114.237 0L114.87 0C114.945 0.589542 115.427 0.739607 116.102 0.739607C116.778 0.739607 117.271 0.568104 117.346 0L117.978 0ZM118.332 2.87268L113.755 9.49699H113.037V1.72575H113.755V8.36078L118.332 1.72575H119.05V9.49699H118.332V2.87268ZM105.446 5.60601C105.446 3.47294 106.657 2.27242 108.244 2.27242C109.83 2.27242 111.042 3.47294 111.042 5.60601C111.042 7.73908 109.83 8.95032 108.244 8.95032C106.657 8.95032 105.446 7.73908 105.446 5.60601ZM111.803 5.60601C111.803 3.23712 110.441 1.5864 108.244 1.5864C106.047 1.5864 104.685 3.23712 104.685 5.60601C104.685 7.9749 106.047 9.63633 108.244 9.63633C110.441 9.63633 111.803 7.9749 111.803 5.60601ZM31.332 9.49699H32.1038L32.8327 7.54614L36.5307 7.54614L37.2703 9.49699H38.0528L35.0944 1.72575H34.2797L31.332 9.49699ZM34.6656 2.61542L36.2735 6.88156L33.0792 6.88156L34.6656 2.61542ZM38.9073 1.72575V9.49699H39.6255V6.2813H41.2333C43.0877 6.2813 44.4168 5.89542 44.4168 4.0196C44.4168 2.16523 43.0877 1.72575 41.2333 1.72575L38.9073 1.72575ZM41.3298 2.37961C42.6053 2.37961 43.6665 2.57255 43.6665 4.0196C43.6665 5.46666 42.6053 5.61673 41.3298 5.61673H39.6255V2.37961L41.3298 2.37961ZM45.2148 9.49699H44.3573L47.2407 5.49882L44.561 1.72575L45.4506 1.72575L47.6909 4.8664L49.9633 1.72575L50.8208 1.72575L48.1197 5.46666L51.0031 9.49699H50.1027L47.6695 6.09908L45.2148 9.49699ZM52.7105 9.49699L57.2875 2.87268V9.49699H58.0057V1.72575L57.2875 1.72575L52.7105 8.36078V1.72575H51.9924V9.49699H52.7105ZM62.2609 9.49699H61.5427V2.39032L58.9273 2.39032V1.72575L64.8763 1.72575V2.39032H62.2609V9.49699ZM65.7997 9.49699H70.784V8.83241H66.5179V5.80967L70.5268 5.80967V5.13438L66.5179 5.13438V2.39032L70.784 2.39032V1.72575L65.7997 1.72575V9.49699ZM72.8566 5.79895V9.49699H72.1277V1.72575L72.8566 1.72575V5.13438H73.982L76.5975 1.72575L77.4871 1.72575L74.593 5.42379L77.5836 9.49699H76.6725L73.9713 5.79895H72.8566ZM80.2648 9.49699H80.983V2.39032L83.5984 2.39032V1.72575L77.6494 1.72575V2.39032L80.2648 2.39032V9.49699ZM87.2502 8.39293C86.8857 9.22901 86.3283 9.64705 85.5673 9.64705H84.8598V8.98248H85.5351C85.996 8.98248 86.2747 8.78953 86.5213 8.36078L86.6821 8.07137L83.7129 1.72575H84.474L87.0251 7.2996L89.3511 1.72575H90.1443L87.2502 8.39293ZM90.944 1.72575V9.49699H91.6622V6.2813H93.27C95.1244 6.2813 96.4536 5.89542 96.4536 4.0196C96.4536 2.16523 95.1244 1.72575 93.27 1.72575L90.944 1.72575ZM93.3665 2.37961C94.6421 2.37961 95.7032 2.57255 95.7032 4.0196C95.7032 5.46666 94.6421 5.61673 93.3665 5.61673H91.6622V2.37961L93.3665 2.37961ZM102.735 5.13438V1.72575L103.453 1.72575V9.49699H102.735V5.80967L98.1576 5.80967V9.49699H97.4394V1.72575H98.1576V5.13438L102.735 5.13438ZM127.285 9.49699L129.922 2.41176V9.49699H130.64V1.72575L129.493 1.72575L126.932 8.68235L124.359 1.72575L123.201 1.72575V9.49699H123.92V2.41176L126.556 9.49699L127.285 9.49699ZM132.267 9.49699H131.496L134.443 1.72575L135.258 1.72575L138.216 9.49699L137.434 9.49699L136.694 7.54614L132.996 7.54614L132.267 9.49699ZM136.437 6.88156L134.829 2.61542L133.243 6.88156L136.437 6.88156ZM144.201 6.99947C143.965 8.00705 143.172 8.95032 141.671 8.95032C140.074 8.95032 138.97 7.67476 138.97 5.60601C138.97 3.46222 140.139 2.27242 141.671 2.27242C142.85 2.27242 143.847 2.92627 144.169 4.22326H144.919C144.576 2.64758 143.451 1.5864 141.693 1.5864C139.463 1.5864 138.209 3.23712 138.209 5.60601C138.209 7.95346 139.431 9.63633 141.661 9.63633C143.504 9.63633 144.608 8.55372 144.951 6.99947H144.201ZM148.355 9.49699H147.637V2.39032H145.022V1.72575L150.971 1.72575V2.39032L148.355 2.39032V9.49699ZM151.894 9.49699H156.879V8.83241H152.612V5.80967H156.621V5.13438H152.612V2.39032L156.879 2.39032V1.72575L151.894 1.72575V9.49699ZM158.222 9.49699V1.72575L160.548 1.72575C162.403 1.72575 163.732 2.16523 163.732 4.0196C163.732 5.89542 162.403 6.2813 160.548 6.2813H158.94V9.49699H158.222ZM162.981 4.0196C162.981 2.57255 161.92 2.37961 160.645 2.37961H158.94V5.61673H160.645C161.92 5.61673 162.981 5.46666 162.981 4.0196ZM170.12 6.99947C169.884 8.00705 169.091 8.95032 167.59 8.95032C165.993 8.95032 164.889 7.67476 164.889 5.60601C164.889 3.46222 166.057 2.27242 167.59 2.27242C168.769 2.27242 169.766 2.92627 170.088 4.22326H170.838C170.495 2.64758 169.37 1.5864 167.612 1.5864C165.382 1.5864 164.128 3.23712 164.128 5.60601C164.128 7.95346 165.35 9.63633 167.58 9.63633C169.423 9.63633 170.527 8.55372 170.87 6.99947H170.12ZM172.727 5.79895V9.49699H171.998V1.72575H172.727V5.13438H173.852L176.468 1.72575H177.358L174.463 5.42379L177.454 9.49699H176.543L173.842 5.79895H172.727ZM178.32 5.60601C178.32 3.47294 179.531 2.27242 181.117 2.27242C182.704 2.27242 183.915 3.47294 183.915 5.60601C183.915 7.73908 182.704 8.95032 181.117 8.95032C179.531 8.95032 178.32 7.73908 178.32 5.60601ZM184.676 5.60601C184.676 3.23712 183.315 1.5864 181.117 1.5864C178.92 1.5864 177.559 3.23712 177.559 5.60601C177.559 7.9749 178.92 9.63633 181.117 9.63633C183.315 9.63633 184.676 7.9749 184.676 5.60601ZM190.852 0C190.766 0.846797 190.005 1.27555 188.965 1.27555C187.979 1.27555 187.164 0.846797 187.111 0L187.743 0C187.818 0.589542 188.3 0.739607 188.976 0.739607C189.651 0.739607 190.144 0.568104 190.219 0L190.852 0ZM191.205 2.87268L186.628 9.49699H185.91V1.72575H186.628V8.36078L191.205 1.72575L191.923 1.72575V9.49699H191.205V2.87268ZM40.0592 26.0147H42.0958L37.2547 19.6378L41.9288 13.912H39.8756L35.8024 19.0368H34.5837V13.912H32.881L32.881 26.0147L34.5837 26.0147L34.5837 20.5059H35.8524L40.0592 26.0147ZM48.0394 15.1306C45.8359 15.1306 44.0998 16.8333 44.0998 19.955C44.0998 23.0767 45.8359 24.7961 48.0394 24.7961C50.243 24.7961 51.9791 23.0767 51.9791 19.955C51.9791 16.8333 50.243 15.1306 48.0394 15.1306ZM48.0394 13.6949C51.5284 13.6949 53.7152 16.2991 53.7152 19.955C53.7152 23.6108 51.5284 26.2317 48.0394 26.2317C44.5505 26.2317 42.3637 23.6108 42.3637 19.955C42.3637 16.2991 44.5505 13.6949 48.0394 13.6949ZM61.2117 26.0147H62.9145L62.9145 20.5059H64.2666L68.0394 26.0147H70.0592L65.7023 19.6712L69.7588 13.912H67.7722L64.2166 19.0368H62.9145V13.912H61.2117V19.0368H59.9096L56.3539 13.912H54.334L58.4072 19.6545L54.0669 26.0147L56.0868 26.0147L59.893 20.5059H61.2117L61.2117 26.0147ZM71.967 26.0147H70.2309L74.7214 13.912H76.6912L81.2486 26.0147H79.4123L78.4607 23.3938L72.9018 23.3938L71.967 26.0147ZM77.9266 21.9415L75.6562 15.6314L73.4193 21.9415L77.9266 21.9415ZM82.7663 26.0147H90.9795V24.5457H84.4691V20.5226H90.5956V19.0535H84.4691V15.381H90.9795V13.912L82.7663 13.912V26.0147ZM98.0191 26.0147H93.2447V13.912L97.6017 13.912C99.8553 13.912 101.859 14.4962 101.859 16.9001C101.859 18.0519 101.374 19.0869 100.523 19.571C101.675 20.0551 102.359 20.9566 102.359 22.4423C102.359 25.0131 100.44 26.0147 98.0191 26.0147ZM97.9356 20.4391H94.9475V24.5791H98.0358C99.7719 24.5791 100.607 23.8446 100.607 22.459C100.607 21.0401 99.7552 20.4391 97.9356 20.4391ZM97.8688 15.3476H94.9475V19.0869H97.8688C99.2711 19.0869 100.139 18.5527 100.139 17.1338C100.139 15.8818 99.221 15.3476 97.8688 15.3476ZM102.97 26.0147H104.706L105.641 23.3938H111.2L112.152 26.0147H113.988L109.431 13.912H107.461L102.97 26.0147ZM108.396 15.6314L110.666 21.9415H106.159L108.396 15.6314ZM119.517 26.0147H117.781L122.272 13.912H124.241L128.799 26.0147H126.962L126.011 23.3938L120.452 23.3938L119.517 26.0147ZM125.477 21.9415L123.206 15.6314L120.97 21.9415L125.477 21.9415ZM139.298 26.0147V13.912L131.702 13.912L131.619 16.9669C131.485 21.1068 131.068 24.5457 129.465 24.5457H129.215V26.0147H129.716C132.203 26.0147 133.021 22.7428 133.238 17.4844L133.321 15.381H137.595V26.0147H139.298ZM150.557 26.0147L142.344 26.0147V13.912L150.557 13.912V15.381L144.046 15.381V19.0535H150.173V20.5226H144.046V24.5457H150.557V26.0147ZM160 26.0147H162.037L157.196 19.6378L161.87 13.912L159.817 13.912L155.743 19.0368H154.525V13.912H152.822V26.0147H154.525V20.5059H155.793L160 26.0147ZM167.897 24.7961C169.833 24.7961 171.002 23.711 171.386 22.1585H173.039C172.504 24.8295 170.418 26.2317 167.797 26.2317C164.325 26.2317 162.305 23.6108 162.305 19.9383C162.305 16.199 164.525 13.6949 167.93 13.6949C170.434 13.6949 172.438 15.1807 172.972 17.7681H171.319C170.969 16.249 169.767 15.1306 167.847 15.1306C165.71 15.1306 164.041 16.7999 164.041 19.9383C164.041 23.0099 165.643 24.7961 167.897 24.7961ZM175.002 26.0147H183.215V24.5457H176.704V20.5226H182.831V19.0535H176.704V15.381L183.215 15.381V13.912L175.002 13.912V26.0147ZM190.455 13.912L193.827 13.912V26.0147H192.124V21.4741H190.354C190.21 21.4741 190.02 21.4629 189.861 21.4535C189.744 21.4466 189.643 21.4407 189.586 21.4407L186.582 26.0147H184.612L187.884 21.0401C186.348 20.5226 185.28 19.4375 185.28 17.6346C185.28 14.78 187.45 13.912 190.455 13.912ZM192.124 20.0051V15.381H190.338C188.385 15.381 187.016 15.7983 187.016 17.6847C187.016 19.4876 188.468 20.0051 190.338 20.0051H192.124ZM21.7063 15.9578H26.0066V26.0145H21.7063V22.9515C20.4777 23.9725 17.0784 26.0145 13.3105 26.0145C8.60061 26.0145 0 22.2879 0 13.099C0 8.75986 3.63478 0.183594 13.3105 0.183594C21.051 0.183594 24.522 5.59481 25.2899 8.30042L21.7063 9.67875C21.0408 7.78993 18.4299 4.01228 13.3105 4.01228C6.91121 4.01228 3.99314 9.6277 3.99314 13.099C3.99314 16.5704 6.65524 22.2369 13.3105 22.2369C18.6347 22.2369 21.1261 18.0508 21.7063 15.9578Z" fill="#2D2D2D"/>
</svg>
