<?xml version="1.0" encoding="utf-8"?><svg viewBox="0 0 548.36 548.36" xmlns="http://www.w3.org/2000/svg" xmlns:xlink="http://www.w3.org/1999/xlink"><style>:root>svg{display:none}:root>svg:target{display:block}</style><svg viewBox="0 0 512 512" id="icon-fb" xmlns="http://www.w3.org/2000/svg"><path d="M304 383c0 40.2-.1 80.3.1 120.5 0 4.4-1.2 5.6-5.6 5.5-34.2-.2-68.3-.2-102.5 0-4.7 0-6.2-1.1-6.2-6 .2-79.7.1-159.3.1-239 0-8 .9-7-7.3-7.1-14.5 0-29-.1-43.5.1-3.5 0-4.5-1.1-4.5-4.6.1-25.3.1-50.7 0-76 0-3.5 1-4.6 4.5-4.5 15.2.2 30.3-.1 45.5.2 4.1.1 5.4-1 5.4-5.3-.2-21.3 0-42.7-.1-64-.1-17.7 2.6-34.8 11.5-50.4 9.6-17 24-28.7 41.8-36.3 15-6.4 30.8-9.4 47-10.3 32.1-1.8 64.3-.3 96.4-.9 3.6-.1 4.5 1.2 4.5 4.6-.1 26.3-.1 52.7 0 79 0 4-1.5 4.6-5 4.6-18.5-.1-37-.1-55.5-.1-15.4 0-26.5 11.1-26.5 26.3 0 15.7.2 31.3-.1 47-.1 4.5 1.4 5.6 5.7 5.6 25.3-.2 50.7 0 76-.2 4.2 0 5.6 1.2 5.1 5.4-1.5 12.9-2.8 25.8-4.2 38.7-1.3 12.4-3.5 24.7-5.5 37-.6 3.5-1.7 4.3-4.9 4.3-21.7-.1-43.3-.1-65 0-8.5 0-7.3-1.1-7.3 7.5.1 39.4.1 78.9.1 118.4z"/></svg><svg style="isolation:isolate" viewBox="-2176 1152 512 512" id="icon-insta" xmlns="http://www.w3.org/2000/svg"><path d="M-2030.08 1152h220.16c80.535 0 145.92 65.385 145.92 145.92v220.16c0 80.535-65.385 145.92-145.92 145.92h-220.16c-80.535 0-145.92-65.385-145.92-145.92v-220.16c0-80.535 65.385-145.92 145.92-145.92z"/><path d="M-1920 1451.46c-24.002 0-43.46-19.458-43.46-43.46 0-24.002 19.458-43.46 43.46-43.46 24.002 0 43.46 19.458 43.46 43.46 0 24.002-19.458 43.46-43.46 43.46zm0-114.585c-39.218 0-71.125 31.907-71.125 71.124 0 39.218 31.907 71.125 71.125 71.125s71.125-31.906 71.125-71.125c0-39.218-31.907-71.124-71.125-71.124zm109.835 126.701c0 29.966-24.293 54.259-54.259 54.259h-111.152c-29.966 0-54.259-24.293-54.259-54.259v-111.152c0-29.967 24.293-54.259 54.259-54.259h111.152c29.966 0 54.259 24.292 54.259 54.259v111.152zm-54.259-193.076h-111.152c-45.173 0-81.924 36.75-81.924 81.924v111.152c0 45.173 36.75 81.924 81.924 81.924h111.152c45.173 0 81.924-36.75 81.924-81.924v-111.152c0-45.173-36.751-81.924-81.924-81.924zm-1.357 66.91c0-9.407 7.637-17.044 17.043-17.044 9.407 0 17.043 7.637 17.043 17.043 0 9.406-7.636 17.043-17.043 17.043-9.406 0-17.043-7.637-17.043-17.043z" fill="#fff"/></svg><svg viewBox="0 0 548.358 548.358" id="icon-vk" xmlns="http://www.w3.org/2000/svg"><path d="M545.451 400.298c-.664-1.431-1.283-2.618-1.858-3.569-9.514-17.135-27.695-38.167-54.532-63.102l-.567-.571-.284-.28-.287-.287h-.288c-12.18-11.611-19.893-19.418-23.123-23.415-5.91-7.614-7.234-15.321-4.004-23.13 2.282-5.9 10.854-18.36 25.696-37.397 7.807-10.089 13.99-18.175 18.556-24.267 32.931-43.78 47.208-71.756 42.828-83.939l-1.701-2.847c-1.143-1.714-4.093-3.282-8.846-4.712-4.764-1.427-10.853-1.663-18.278-.712l-82.224.568c-1.332-.472-3.234-.428-5.712.144l-3.713.859-1.431.715-1.136.859c-.952.568-1.999 1.567-3.142 2.995-1.137 1.423-2.088 3.093-2.848 4.996-8.952 23.031-19.13 44.444-30.553 64.238-7.043 11.803-13.511 22.032-19.418 30.693-5.899 8.658-10.848 15.037-14.842 19.126-4 4.093-7.61 7.372-10.852 9.849-3.237 2.478-5.708 3.525-7.419 3.142-1.715-.383-3.33-.763-4.859-1.143-2.663-1.714-4.805-4.045-6.42-6.995-1.622-2.95-2.714-6.663-3.285-11.136-.568-4.476-.904-8.326-1-11.563-.089-3.233-.048-7.806.145-13.706.198-5.903.287-9.897.287-11.991 0-7.234.141-15.085.424-23.555.288-8.47.521-15.181.716-20.125.194-4.949.284-10.185.284-15.705s-.336-9.849-1-12.991a44.442 44.442 0 00-2.99-9.137c-1.335-2.95-3.289-5.232-5.853-6.852-2.569-1.618-5.763-2.902-9.564-3.856-10.089-2.283-22.936-3.518-38.547-3.71-35.401-.38-58.148 1.906-68.236 6.855-3.997 2.091-7.614 4.948-10.848 8.562-3.427 4.189-3.905 6.475-1.431 6.851 11.422 1.711 19.508 5.804 24.267 12.275l1.715 3.429c1.334 2.474 2.666 6.854 3.999 13.134 1.331 6.28 2.19 13.227 2.568 20.837.95 13.897.95 25.793 0 35.689-.953 9.9-1.853 17.607-2.712 23.127-.859 5.52-2.143 9.993-3.855 13.418-1.715 3.426-2.856 5.52-3.428 6.28-.571.76-1.047 1.239-1.425 1.427a21.387 21.387 0 01-7.71 1.431c-2.667 0-5.901-1.334-9.707-4-3.805-2.666-7.754-6.328-11.847-10.992-4.093-4.665-8.709-11.184-13.85-19.558-5.137-8.374-10.467-18.271-15.987-29.691l-4.567-8.282c-2.855-5.328-6.755-13.086-11.704-23.267-4.952-10.185-9.329-20.037-13.134-29.554-1.521-3.997-3.806-7.04-6.851-9.134l-1.429-.859c-.95-.76-2.475-1.567-4.567-2.427a30.301 30.301 0 00-6.567-1.854l-78.229.568c-7.994 0-13.418 1.811-16.274 5.428l-1.143 1.711c-.571.953-.859 2.475-.859 4.57 0 2.094.571 4.664 1.714 7.707 11.42 26.84 23.839 52.725 37.257 77.659 13.418 24.934 25.078 45.019 34.973 60.237 9.897 15.229 19.985 29.602 30.264 43.112 10.279 13.515 17.083 22.176 20.412 25.981 3.333 3.812 5.951 6.662 7.854 8.565l7.139 6.851c4.568 4.569 11.276 10.041 20.127 16.416 8.853 6.379 18.654 12.659 29.408 18.85 10.756 6.181 23.269 11.225 37.546 15.126 14.275 3.905 28.169 5.472 41.684 4.716h32.834c6.659-.575 11.704-2.669 15.133-6.283l1.136-1.431c.764-1.136 1.479-2.901 2.139-5.276.668-2.379 1-5 1-7.851-.195-8.183.428-15.558 1.852-22.124 1.423-6.564 3.045-11.513 4.859-14.846 1.813-3.33 3.859-6.14 6.136-8.418 2.282-2.283 3.908-3.666 4.862-4.142.948-.479 1.705-.804 2.276-.999 4.568-1.522 9.944-.048 16.136 4.429 6.187 4.473 11.99 9.996 17.418 16.56 5.425 6.57 11.943 13.941 19.555 22.124 7.617 8.186 14.277 14.271 19.985 18.274l5.708 3.426c3.812 2.286 8.761 4.38 14.853 6.283 6.081 1.902 11.409 2.378 15.984 1.427l73.087-1.14c7.229 0 12.854-1.197 16.844-3.572 3.998-2.379 6.373-5 7.139-7.851.764-2.854.805-6.092.145-9.712-.677-3.611-1.344-6.136-2.008-7.563z"/></svg></svg>